name C:\Users\antoi\Documents\MyRepositories\upper-imu-dc\Results\main_tracking\Case_78\FLX01_angularVelocities_bodyFrame.mot
datacolumns 4
datarows 117
range 4.37000000 5.53000000
endheader 
time	radius_imu_x	radius_imu_y	radius_imu_z	
          4.37000000	          0.98634716	         -0.64052965	          1.10075613	
          4.38000000	          1.00780289	         -0.64088422	          1.09240509	
          4.39000000	          1.02926156	         -0.64283890	          1.08398011	
          4.40000000	          1.05082003	         -0.64614493	          1.07545808	
          4.41000000	          1.07255607	         -0.65048798	          1.06683029	
          4.42000000	          1.09452572	         -0.65551417	          1.05810205	
          4.43000000	          1.11676576	         -0.66085288	          1.04929221	
          4.44000000	          1.13929998	         -0.66612686	          1.04043090	
          4.45000000	          1.16214784	         -0.67095303	          1.03155675	
          4.46000000	          1.18533222	         -0.67496102	          1.02271478	
          4.47000000	          1.20888298	         -0.67781829	          1.01395175	
          4.48000000	          1.23283592	         -0.67927813	          1.00531110	
          4.49000000	          1.25722963	         -0.67921516	          0.99682604	
          4.50000000	          1.28210070	         -0.67765533	          0.98851309	
          4.51000000	          1.30748037	         -0.67477353	          0.98036634	
          4.52000000	          1.33339205	         -0.67086524	          0.97235310	
          4.53000000	          1.35984853	         -0.66630978	          0.96441108	
          4.54000000	          1.38684820	         -0.66150421	          0.95644515	
          4.55000000	          1.41436779	         -0.65682769	          0.94833147	
          4.56000000	          1.44235505	         -0.65259149	          0.93992264	
          4.57000000	          1.47072112	         -0.64901625	          0.93105595	
          4.58000000	          1.49933512	         -0.64622230	          0.92156494	
          4.59000000	          1.52802248	         -0.64420686	          0.91128863	
          4.60000000	          1.55656549	         -0.64286027	          0.90008066	
          4.61000000	          1.58470863	         -0.64195991	          0.88781342	
          4.62000000	          1.61216640	         -0.64120165	          0.87438248	
          4.63000000	          1.63863461	         -0.64023067	          0.85970987	
          4.64000000	          1.66380365	         -0.63866716	          0.84374739	
          4.65000000	          1.68737217	         -0.63614889	          0.82648276	
          4.66000000	          1.70906216	         -0.63233445	          0.80794061	
          4.67000000	          1.72863179	         -0.62693134	          0.78817914	
          4.68000000	          1.74588691	         -0.61970382	          0.76728579	
          4.69000000	          1.76068881	         -0.61048368	          0.74537130	
          4.70000000	          1.77295768	         -0.59918835	          0.72256076	
          4.71000000	          1.78267320	         -0.58581478	          0.69898544	
          4.72000000	          1.78987139	         -0.57044911	          0.67477704	
          4.73000000	          1.79464060	         -0.55325675	          0.65006108	
          4.74000000	          1.79711549	         -0.53448171	          0.62495187	
          4.75000000	          1.79746882	         -0.51444720	          0.59954994	
          4.76000000	          1.79590047	         -0.49354153	          0.57394236	
          4.77000000	          1.79262178	         -0.47221242	          0.54820676	
          4.78000000	          1.78783889	         -0.45094505	          0.52241623	
          4.79000000	          1.78173760	         -0.43024030	          0.49664451	
          4.80000000	          1.77447287	         -0.41059699	          0.47097102	
          4.81000000	          1.76616521	         -0.39248627	          0.44548572	
          4.82000000	          1.75690166	         -0.37633906	          0.42028960	
          4.83000000	          1.74673868	         -0.36253402	          0.39548207	
          4.84000000	          1.73570406	         -0.35138189	          0.37115964	
          4.85000000	          1.72381301	         -0.34310804	          0.34744069	
          4.86000000	          1.71113005	         -0.33786410	          0.32442611	
          4.87000000	          1.69777043	         -0.33573250	          0.30220777	
          4.88000000	          1.68372368	         -0.33662833	          0.28092617	
          4.89000000	          1.66896981	         -0.34039579	          0.26062657	
          4.90000000	          1.65366180	         -0.34684076	          0.24138598	
          4.91000000	          1.63792684	         -0.35567030	          0.22333390	
          4.92000000	          1.62178730	         -0.36656209	          0.20650809	
          4.93000000	          1.60527909	         -0.37918369	          0.19094832	
          4.94000000	          1.58847414	         -0.39321548	          0.17670415	
          4.95000000	          1.57144485	         -0.40836475	          0.16381027	
          4.96000000	          1.55424317	         -0.42436741	          0.15228329	
          4.97000000	          1.53690646	         -0.44096105	          0.14212344	
          4.98000000	          1.51946565	         -0.45791221	          0.13331561	
          4.99000000	          1.50195513	         -0.47496835	          0.12582609	
          5.00000000	          1.48441714	         -0.49187456	          0.11960435	
          5.01000000	          1.46690615	         -0.50837517	          0.11458492	
          5.02000000	          1.44949366	         -0.52417879	          0.11068709	
          5.03000000	          1.43226589	         -0.53900380	          0.10781951	
          5.04000000	          1.41532570	         -0.55250325	          0.10587972	
          5.05000000	          1.39878728	         -0.56430302	          0.10476097	
          5.06000000	          1.38277268	         -0.57395448	          0.10435326	
          5.07000000	          1.36740618	         -0.58096220	          0.10454401	
          5.08000000	          1.35280950	         -0.58481988	          0.10521546	
          5.09000000	          1.33910154	         -0.58503400	          0.10624056	
          5.10000000	          1.32639498	         -0.58125481	          0.10748736	
          5.11000000	          1.31479535	         -0.57322291	          0.10881519	
          5.12000000	          1.30438986	         -0.56091730	          0.11009077	
          5.13000000	          1.29524370	         -0.54442065	          0.11119289	
          5.14000000	          1.28738667	         -0.52404254	          0.11203131	
          5.15000000	          1.28080627	         -0.50019807	          0.11253714	
          5.16000000	          1.27544838	         -0.47340224	          0.11267468	
          5.17000000	          1.27123160	         -0.44432729	          0.11244068	
          5.18000000	          1.26804866	         -0.41367323	          0.11184103	
          5.19000000	          1.26574860	         -0.38229512	          0.11089385	
          5.20000000	          1.26415001	         -0.35102674	          0.10960933	
          5.21000000	          1.26307518	         -0.32081676	          0.10800035	
          5.22000000	          1.26236909	         -0.29253514	          0.10608995	
          5.23000000	          1.26186043	         -0.26700493	          0.10389936	
          5.24000000	          1.26137778	         -0.24494424	          0.10140897	
          5.25000000	          1.26076808	         -0.22685719	          0.09858237	
          5.26000000	          1.25992242	         -0.21317943	          0.09536789	
          5.27000000	          1.25878574	         -0.20410965	          0.09169643	
          5.28000000	          1.25733052	         -0.19975787	          0.08745256	
          5.29000000	          1.25553654	         -0.20012272	          0.08248672	
          5.30000000	          1.25345870	         -0.20511978	          0.07666553	
          5.31000000	          1.25119599	         -0.21463784	          0.06986009	
          5.32000000	          1.24882464	         -0.22848703	          0.06193935	
          5.33000000	          1.24642337	         -0.24651084	          0.05279006	
          5.34000000	          1.24407072	         -0.26847771	          0.04232358	
          5.35000000	          1.24183244	         -0.29415515	          0.03047507	
          5.36000000	          1.23976181	         -0.32326421	          0.01719857	
          5.37000000	          1.23790345	         -0.35546058	          0.00246641	
          5.38000000	          1.23627242	         -0.39034843	         -0.01374289	
          5.39000000	          1.23485954	         -0.42752103	         -0.03144236	
          5.40000000	          1.23367649	         -0.46652823	         -0.05061720	
          5.41000000	          1.23274201	         -0.50690184	         -0.07122789	
          5.42000000	          1.23205117	         -0.54800880	         -0.09322648	
          5.43000000	          1.23160543	         -0.58908549	         -0.11653412	
          5.44000000	          1.23143745	         -0.62951584	         -0.14101234	
          5.45000000	          1.23155895	         -0.66844054	         -0.16651626	
          5.46000000	          1.23196825	         -0.70531584	         -0.19293195	
          5.47000000	          1.23257734	         -0.73889218	         -0.22003004	
          5.48000000	          1.23345552	         -0.76838957	         -0.24760544	
          5.49000000	          1.23466773	         -0.79330375	         -0.27548116	
          5.50000000	          1.23616395	         -0.81254556	         -0.30341008	
          5.51000000	          1.23795463	         -0.82545165	         -0.33115826	
          5.52000000	          1.24003735	         -0.83144631	         -0.35847519	
          5.53000000	          1.24238961	         -0.83001588	         -0.38509723	
